<?xml version="1.0"?><svg width="729.65601" height="795.54492" xmlns="http://www.w3.org/2000/svg">

 <metadata id="metadata7">image/svg+xml</metadata>
 <g>
  <title>Layer 1</title>
  <g externalResourcesRequired="false" id="layer1">
   <g externalResourcesRequired="false" id="g3130">
    <path fill="#7f007f" id="path3128" d="m279.265137,0.03508c-0.34021,-0.016022 -0.691711,0.007874 -1.0625,0.03125c-0.022095,-0.000458 -0.040192,0.000092 -0.0625,0c-0.285217,-0.001282 -0.619904,0.059708 -0.968811,0.125c-0.039001,0.007294 -0.084991,-0.008224 -0.125,0c-4.455688,0.705261 -11.090881,3.904251 -22.312485,10.5c-21.093201,12.39798 -87.24617,35.796631 -119.437469,42.25c-18.602211,3.729172 -30.519737,8.605225 -40.343773,16.5c-7.494804,6.022995 -18.814804,22.480286 -23.8125,34.625c-5.127899,12.461151 -11.781258,35.586685 -11.781246,40.906265c0,2.943542 -2.122532,7.488739 -5.53125,11.90625c-5.768101,7.47525 -9.047112,16.609802 -9.0625,25.21875c-0.005001,2.789124 -1.025631,5.926727 -2.28125,6.96875c-4.951801,4.10968 -7.639862,13.315582 -8.3125,28.46875c-0.540691,12.179749 -2.019154,19.357544 -7.156252,35.21875c-14.4371,44.575653 -24.44625,83.180176 -26.84375,103.4375c-0.34124,2.883026 -0.87772,10.434021 -1.34375,18.8125c-0.0205,0.3685 -0.04224,0.690887 -0.0625,1.0625c-0.24278,3.668701 -0.47317,7.313416 -0.59375,10.65625c-0.13923,3.859924 -0.20692,6.875061 -0.25,9.4375c-0.09806,5.831848 0.08604,8.812134 0.75,10.53125c0.01088,0.038391 0.0201,0.087219 0.03125,0.125c1.06539,3.610352 3.3532,4.479248 7.65625,5.375c2.836699,0.590515 9.157589,2.761475 14.0625,4.8125c9.109301,3.809021 25.875181,9.026245 38.937502,12.15625c4.0131,0.961609 18.583233,2.174561 32.406246,2.6875c23.498306,0.872009 25.416916,1.176819 29.250008,4.75c2.254799,2.101868 6.532204,4.684143 9.500015,5.71875c1.594055,0.555664 2.710785,0.946777 3.46875,1.4375c0.011414,0.007385 0.019989,0.023804 0.03125,0.03125c0.458847,0.354614 0.807007,0.789978 1.09375,1.28125c0.426544,1.08197 0.208679,2.69397 -0.25,5.5625c-0.566513,3.542786 -2.549942,10.561768 -4.40625,15.59375c-1.856308,5.031982 -4.048943,13.52417 -4.906265,18.875c-1.710197,10.673218 -0.59623,32.302185 2.15625,41.53125c1.445511,4.846497 1.186966,7.396545 -1.46875,14.59375c-8.501396,23.03894 -8.122589,38.7052 1.375,58.78125c5.570602,11.775085 5.80809,16.03302 1.468765,26.15625c-3.65731,8.532104 -4.251236,21.949158 -1.218765,27.28125c1.374008,2.415833 2.325729,16.411682 3.000015,44.0625c0.83429,34.214355 1.536087,42.910461 4.625,55.71875c2.924606,12.127197 4.011581,17.328125 9.46875,19.375c0.031998,0.012024 0.061417,0.01947 0.09375,0.03125c1.543518,0.766541 3.398819,1.072693 5.6875,1.03125c4.27298,0.290833 10.068588,0.032593 18.34375,-0.28125c29.399826,-1.115112 44.981628,0.809509 74.687531,9.1875c22.450363,6.331726 32.888474,8.540344 52.312485,11.15625c1.83429,0.247009 5.208679,0.497192 9.406189,0.71875c1.023102,0.222046 1.747009,0.434448 1.875092,0.5625c0.525604,0.525574 11.397614,0.549377 25.4375,0.3125c0.125824,0.001953 0.249023,-0.001892 0.375,0c2.497803,0.037598 5.012726,0.045227 7.5,0.0625c57.923218,0.402222 82.907715,-4.463806 137.8125,-26.875c42.739105,-17.445496 57.490509,-21.865417 82.156342,-24.625c7.16156,-0.80127 13.753174,-2.159546 14.625,-3.03125c7.160461,-7.160645 5.313354,-71.356628 -2.593811,-90.28125c-2.261841,-5.413208 -2.132813,-6.353882 2.218811,-16.90625c8.134155,-19.725769 10.420166,-29.387512 10.406189,-43.96875c-0.010742,-11.178162 -0.706604,-15.14801 -3.718689,-20.96875c-4.095337,-7.91333 -4.05542,-9.757019 0.875,-34.96875c2.160278,-11.046692 2.891479,-23.161804 2.968689,-49.78125l0.093811,-35.0625l1.5625,-0.09375l8.375,0c11.833496,0 20.430542,-3.246155 28.156189,-10.65625c5.037292,-4.831604 7.704712,-5.8396 23.781311,-8.875c32.034363,-6.04834 70.670654,-19.156738 77.25,-26.21875c0.801758,-0.860657 1.385681,-1.569885 1.781189,-2.40625c0.009705,-0.020447 0.02179,-0.041931 0.031311,-0.0625c0.635376,-0.959045 0.9375,-1.914612 0.9375,-2.875c0,-0.7724 -0.348633,-2.650269 -0.906311,-5.15625c-0.434204,-2.72345 -1.128906,-6.260986 -2.125,-11.25c-2.962708,-14.840118 -25.206238,-88.228851 -36.843689,-121.59375c-4.94281,-14.170441 -5.524048,-17.468231 -4.625,-26.03125c1.243286,-11.842773 -0.931152,-20.730682 -7.125,-29.28125c-3.574158,-4.933838 -4.828308,-8.885773 -5.656311,-17.6875c-1.968323,-20.922119 -14.430115,-69.821518 -21.1875,-83.125015c-12.348145,-24.309982 -30.801147,-35.503815 -94.718689,-57.40625c-45.816437,-15.699707 -64.265717,-23.303925 -76.875122,-31.75c-6.48941,-4.346725 -13.109192,-8.407822 -14.718719,-9c-1.674286,-0.616028 -6.872894,0.579071 -12.156281,2.78125c-18.213409,7.591476 -48.835999,12.210403 -81.406219,12.28125c-34.806091,0.075714 -53.819183,-4.254608 -87.062592,-19.8125c-0.809692,-0.378937 -1.698181,-0.60817 -2.718689,-0.65625z"/>
    <path fill="#000000" fill-opacity="0.071066" d="m278.333832,11.745407c-3.2435,-0.014175 -16.755188,7.104706 -23.124969,12.1875c-3.607513,2.87851 -41.346313,17.269897 -67.281311,25.65625c-29.332596,9.484985 -37.743698,11.800781 -53.468689,14.78125c-24.619118,4.666214 -38.646812,15.468567 -50.000015,38.46875c-3.215286,6.513824 -7.032997,16.944885 -8.468803,23.187515c-1.435883,6.242615 -3.295296,12.059021 -4.124992,12.90625c-0.829803,0.847198 -1.5,4.54715 -1.5,8.25c0,6.463837 -0.687798,7.845398 -10.5312,21.1875c-1.3867,1.879333 -3.099899,8.237122 -3.8125,14.15625c-0.940498,7.812195 -2.302898,11.876984 -5.0313,14.78125c-3.156101,3.359558 -4.005402,6.679688 -5.25,20.6875c-1.605999,18.07608 -2.365299,21.189575 -13.4375,56.40625c-8.522699,27.10788 -15.502701,53.836975 -20.156201,77c-3.554999,17.694458 -6.501099,43.8125 -5.406299,48.09375c0.3792,1.482422 3.730899,3.806885 7.4375,5.15625c3.706601,1.349304 10.826701,3.937073 15.812501,5.75c27.924801,10.153931 36.8666,11.875061 65.156296,12.53125l27.218704,0.625l5.6875,5.6875c4.960403,4.960388 6.677399,5.6875 13.718811,5.6875c4.429199,0 8.063492,0.518616 8.0625,1.1875c-0.0047,3.2771 -8.672501,35.690369 -10.5,39.28125c-3.299515,6.483032 -4.486115,27.051392 -2.3125,39.78125c2.913696,17.065491 2.5401,22.889282 -2.531311,39.6875c-5.375092,17.804199 -4.8517,23.679504 3.875,43.5625c5.813797,13.246338 6.165207,19.782043 1.718811,31.0625c-3.703003,9.394592 -4.156006,18.070435 -1.218811,23.21875c1.377808,2.414978 2.328506,16.161743 3,43.25c0.995209,40.145752 3.905701,62.923279 8.625,67.78125c1.569199,1.615234 4.266403,1.765808 11.625,0.59375c10.822098,-1.723816 47.064911,0.1427 59.843811,3.09375c4.462296,1.030457 16.89209,4.316162 27.593689,7.28125c19.495483,5.401611 47.808685,11.379639 59.968781,12.65625c3.5672,0.374512 22.201202,0.487305 41.375,0.25c28.241821,-0.349548 38.082397,-1.117188 51.875,-3.96875c28.830505,-5.960693 43.270416,-10.545959 74.6875,-23.78125c34.565399,-14.561646 59.87973,-22.277405 79.812531,-24.3125c8.150391,-0.832214 11.411499,-1.880554 12.5625,-4.03125c2.065857,-3.860107 1.985962,-38.558289 -0.125,-54.5c-0.924011,-6.976013 -3.215637,-17.15979 -5.093811,-22.625l-3.406189,-9.90625l5.968689,-13.9375c11.529175,-26.842957 13.215881,-48.039795 4.781311,-60.46875c-3.142395,-4.630493 -3.853516,-7.171936 -3.031311,-11c9.558899,-44.505493 11.072205,-81.85791 4.6875,-115.875l-1.031189,-5.46875l11.156189,1.25c20.153198,2.277527 28.744019,-0.009766 38.5,-10.28125c3.502869,-3.687927 6.680115,-5.180664 12.968811,-6.03125c19.821594,-2.681091 45.884277,-9.449402 66.718689,-17.34375c19.359802,-7.335571 19.010071,-6.725403 13.8125,-23.875c-1.764404,-5.821899 -5.467834,-18.627686 -8.218689,-28.4375c-6.634521,-23.658691 -16.205505,-54.520966 -26.125,-84.1875c-7.261536,-21.717163 -7.987732,-25.16571 -7.031311,-33.40625c1.357361,-11.695251 -1.124207,-20.955627 -7.031189,-26.21875c-4.264343,-3.799469 -4.720642,-5.279633 -5.718811,-19.3125c-1.022217,-14.369537 -7.305908,-43.662323 -10.781189,-50.15625c-0.875549,-1.635803 -1.593811,-4.794159 -1.593811,-7.03125c0,-2.237152 -1.963135,-9.327469 -4.343689,-15.750015c-6.562134,-17.703186 -18.940308,-30.153641 -40.156311,-40.40625c-8.980042,-4.339523 -26.179504,-11.24707 -38.218689,-15.375c-65.393524,-22.421494 -78.472137,-27.768173 -94.875031,-38.65625c-7.666779,-5.089096 -10.001404,-5.928024 -12.781281,-4.59375c-14.61731,7.015884 -56.571808,13.250366 -89.218719,13.25c-32.697998,-0.000366 -55.624878,-4.516235 -79.5625,-15.65625c-4.459106,-2.075104 -9.756805,-3.772537 -11.75,-3.78125zm-2.1875,6.46875c0.937714,0 3.166321,2.840759 4.9375,6.3125c5.844604,11.456375 23.104797,32.784119 33.406219,41.28125c20.173492,16.64006 43.733185,24.530014 61.843781,20.6875c19.568512,-4.151855 36.577698,-12.829239 53.718719,-27.375c8.475983,-7.192688 24.489777,-24.944687 29.625,-32.8125l2.625,-3.96875l6.718781,4.4375c3.694702,2.445038 6.718719,5.189163 6.718719,6.09375c0,3.856461 -10.174713,21.284576 -18.5625,31.8125c-17.183502,21.567642 -39.61322,34.681305 -69,40.34375c-35.639313,6.867233 -68.743317,-3.620773 -97.0625,-30.78125c-15.181305,-14.56015 -31.031219,-37.688629 -31.031219,-45.28125c0,-2.281403 12.655701,-10.750015 16.0625,-10.75zm210.031219,19.4375c0.245178,0 5.482574,2.094177 11.625,4.625c6.142303,2.530838 15.555359,6.105927 20.906311,7.96875c5.350647,1.862823 23.504761,8.15741 40.343689,14c36.040771,12.505096 54.198914,20.948868 64.375,29.90625c7.866211,6.924103 16.209473,20.933548 19.218811,32.250015c2.056274,7.732941 1.433899,9.425507 -10.218811,27.90625l-6.5625,10.40625l-2.25,-5.5625c-3.50531,-8.671906 -6.613403,-11.21875 -13.5625,-11.21875c-4.97583,0 -7.514832,1.221436 -12.6875,6.09375c-7.457642,7.024597 -8.981812,11.79364 -14.593689,45.78125c-1.988037,12.039307 -3.901611,22.190887 -4.25,22.5625c-0.348633,0.371552 -0.625,-9.323395 -0.625,-21.5625c0,-38.311218 -6.624207,-73.96875 -13.718811,-73.96875c-4.057129,0 -6.003601,32.76236 -3.718689,62.4375c0.955383,12.409637 1.997253,25.227997 3.625,44.59375c3.873657,46.089691 2.389893,92.871643 -4.156311,131.3125c-5.055115,29.683716 -6.338501,34.193542 -33.968689,117.40625c-12.466614,37.544983 -23.394318,70.511292 -24.281311,73.25c-1.94812,6.014893 -2.13092,13.65625 -0.3125,13.65625c3.338898,0 12.297485,-12.348083 34.125,-47.03125l3.5625,-5.65625l-1.093689,4.84375c-1.785522,7.807861 -9.297852,28.817261 -20.5625,57.5625c-12.084808,30.837097 -18.997528,45.951233 -26.562531,58c-5.920105,9.428589 -6.627899,12.966125 -2.875,14.40625c4.404816,1.690247 8.996307,-4.613281 20.281219,-27.8125c12.789795,-26.292847 21.304077,-47.774231 39.5625,-99.71875c2.977966,-8.472107 5.93158,-16.663208 6.5625,-18.21875c1.380859,-3.404968 4.062561,-2.193481 4.0625,1.84375c0,1.588501 2.312195,7.496094 5.125,13.125c5.55658,11.119751 5.556519,11.424622 -0.1875,39.75c-2.856934,14.088196 -36.21991,76.407166 -62.781219,117.3125c-9.025696,13.899841 -10.22699,18.875 -4.5625,18.875c2.243896,0 6.007507,-4.178955 12.375,-13.78125c13.144623,-19.822388 35.616119,-58.746399 48.843719,-84.59375c6.275391,-12.262573 11.977783,-21.950562 12.656311,-21.53125c2.527283,1.561951 3.328186,13.879089 1.5,22.96875c-3.824097,19.013245 -13.776611,42.817993 -22.531311,53.96875c-11.945923,15.215393 -25.19574,29.323608 -33.6875,35.875c-6.405701,4.941956 -8.664917,7.732666 -8.3125,10.1875c0.266388,1.855469 1.598175,3.588928 2.9375,3.84375c3.705872,0.705078 21.957764,-15.366638 36.4375,-32.0625l12.9375,-14.9375l1.875,4.625c2.98938,7.481995 5.805603,35.829651 5.218811,52.46875l-0.531311,15.40625l-4.875,0.4375c-21.36853,1.904358 -52.380005,11.222778 -87.5625,26.3125c-23.463104,10.063232 -49.075226,18.015381 -73.031219,22.65625c-19.975494,3.86969 -68.810486,5.674866 -89.9375,3.34375c-17.020386,-1.877991 -43.41629,-7.440186 -61.593781,-13c-20.308792,-6.211731 -39.840103,-9.754028 -54.093689,-9.78125c-6.367111,-0.012207 -13.060211,-0.424377 -14.843811,-0.90625c-4.108994,-1.110168 -26.312103,-44.490662 -24.375,-47.625c1.9039,-3.080505 12.329697,-1.378784 43.031311,7.0625c21.936996,6.031494 57.231094,14.89093 70.531189,17.6875c10.951996,2.302795 19.180786,3.918945 38.125,7.46875c21.766388,4.078613 84.864594,9.877991 107,9.84375c15.821198,-0.024536 50.811676,-4.155945 55.25,-6.53125c2.621185,-1.402893 3.014191,-2.329529 1.593781,-3.75c-2.184296,-2.184265 -21.072784,-1.805237 -29.4375,0.59375c-7.4375,2.133057 -24.030396,1.996338 -33.468781,-0.28125c-25.469025,-6.145935 -74.153809,-24.330322 -109.625,-40.9375c-8.777496,-4.109558 -16.253723,-7.46875 -16.625,-7.46875c-1.4888,0 -32.515503,-18.436523 -43.375,-25.78125c-17.797195,-12.036865 -37.300095,-33.528625 -49.5,-54.5c-5.699203,-9.796692 -14.239502,-24.410645 -18.968689,-32.46875c-20.593109,-35.088196 -26.541611,-60.71875 -14.093811,-60.71875c3.515198,0 7.479309,3.073242 18.281311,14.21875c11.437393,11.801208 16.097687,18.368286 27.375,38.5c17.289688,30.864746 31.693298,52.554993 45.4375,68.46875c11.536377,13.357361 17.999969,16.838074 17.999969,9.6875c0,-2.15332 -1.576477,-5.301147 -3.468781,-7c-4.195709,-3.766846 -17.625,-21.033386 -17.625,-22.65625c0,-0.643005 3.818008,2.453003 8.5,6.875c38.678375,36.530884 102.742889,66.983765 162.5625,77.28125c39.92099,6.87207 42.968781,7.1026 42.968781,3.5c0,-1.337708 -0.3815,-2.437561 -0.843781,-2.4375c-2.995697,0 -26.917419,-7.208679 -33.0625,-9.96875c-18.842102,-8.463135 -33.658722,-16.581055 -36.625,-20.0625c-1.7836,-2.093384 -8.351105,-7.22229 -14.593719,-11.40625c-59.172577,-39.659058 -129.326584,-120.326843 -166.281281,-191.21875c-5.578598,-10.70166 -11.740601,-21.035278 -13.718689,-22.96875c-7.387802,-7.221375 -22.391708,-62.211243 -29.781311,-109.1875c-10.294403,-65.443756 -12.163193,-146.854858 -5.343689,-231.812515c1.005386,-12.525696 1.457794,-13.907669 5.156189,-15.6875c2.229507,-1.072937 22.634109,-7.980942 45.375,-15.34375c22.740997,-7.362793 44.388,-14.71283 48.093781,-16.34375c3.705719,-1.630936 7.73822,-2.565994 8.9375,-2.0625c1.199097,0.503494 5.312714,4.862122 9.156219,9.65625c8.503296,10.606567 25.368195,24.482437 38.156281,31.40625c21.020996,11.3815 47.417816,16.352264 70.3125,13.21875c42.144623,-5.768173 73.406006,-27.147064 95.593719,-65.3125c4.017975,-6.911469 7.504883,-12.562515 7.75,-12.5625zm-361.8125,77.28125c2.271194,-0.399994 2.376297,2.453445 0.0625,8.34375c-2.860107,7.281204 -6.623901,8.782608 -10.437508,4.187515c-1.875694,-2.26004 -1.318398,-3.347382 4.031303,-8.250015c2.847504,-2.609543 4.981003,-4.04126 6.343704,-4.28125zm-16.562508,20.000015c0.712708,0 3.219505,1.67215 5.562508,3.6875l4.25,3.65625l-2.468704,10.53125c-1.355896,5.787872 -2.874397,13.249481 -3.406303,16.59375c-0.531998,3.344238 -1.542198,6.09375 -2.218697,6.09375c-1.528,0 -11.593803,-10.284332 -11.593803,-11.84375c0,-0.626404 1.007706,-1.125 2.250008,-1.125c3.081497,0 4.314598,-3.757568 5.406296,-16.625c0.510803,-6.019653 1.505997,-10.968781 2.218697,-10.96875zm539.781319,14.59375c2.127502,0 6.537964,20.730743 8.718689,40.9375c1.87439,17.367554 2.401184,19.211273 6.343811,22.3125c5.583252,4.391785 7.595398,11.980774 5.9375,22.46875c-1.166138,7.377319 -0.635437,10.364655 4.406189,24.96875c14.733459,42.678955 34.871399,110.249695 33.3125,111.71875c-1.660095,1.564453 -15.484619,5.597931 -43.968689,12.84375c-13.747742,3.497131 -25.966309,6.375 -27.156311,6.375c-2.647522,0 -2.771912,-8.134827 -0.625,-41.625c0.847717,-13.225037 1.917175,-60.373505 2.375,-104.75l0.843811,-80.6875l4.25,-7.28125c2.346252,-4.003723 4.851379,-7.28125 5.5625,-7.28125zm-37.75,8.4375c4.157776,0.029663 5.323486,2.584076 5.125,9.40625c-0.139832,4.803406 -1.771912,7.165405 -10.593811,15.34375l-10.406189,9.65625l1.031189,-7.21875c0.566162,-3.976654 1.611816,-9.418365 2.343811,-12.09375c0.73175,-2.675415 1.779358,-6.836639 2.3125,-9.25c0.768066,-3.476807 2.185486,-4.631989 6.8125,-5.5c1.296387,-0.243225 2.415405,-0.350616 3.375,-0.34375zm-517.156311,17.6875c1.132996,-0.009338 3.488609,1.778503 8.124992,5.9375l8.562508,7.6875l-1.875,6.46875c-1.927803,6.720764 -1.371201,40.680481 1.6875,103.78125c0.821297,16.944214 2.266197,49.262421 3.1875,71.8125c0.921295,22.550049 2.089996,41.653748 2.593796,42.46875c0.5037,0.815002 -0.531403,2.250977 -2.281296,3.1875c-7.767303,4.15686 -54.312302,-0.521545 -58.7812,-5.90625c-1.050301,-1.265442 -1.874001,-5.717712 -1.8438,-9.90625c0.032902,-4.570679 -0.9538,-8.763062 -2.4375,-10.46875c-2.104,-2.418823 -2.166,-3.857422 -0.4375,-9.71875c4.238499,-14.372253 16.247498,-28.636871 33.031296,-39.25c5.178902,-3.274872 9.821404,-7.001587 10.3125,-8.28125c2.144501,-5.588501 -1.885902,-11.881073 -17.281296,-26.875l-16.0625,-15.625l1.6875,-6.25c0.931499,-3.442932 3.815193,-13.860626 6.406296,-23.15625c2.591003,-9.295654 4.718697,-18.802704 4.718697,-21.125c0,-6.175751 4.281303,-11.294006 12.343803,-14.75c7.924614,-3.396881 8.853607,-6.420441 4.5625,-14.71875c-2.291786,-4.431915 -2.276497,-6.178436 -0.031296,-18.15625c1.3666,-7.290833 2.68631,-14.518036 2.937492,-16.0625c0.112617,-0.691925 0.360001,-1.089539 0.875008,-1.09375zm534.468811,4.9375c0.108887,-0.003326 0.224976,0.037537 0.3125,0.125c1.380188,1.380157 -2.761108,211.43988 -4.281311,217.1875c-1.732483,6.550598 -8.497742,13.129456 -17.3125,16.8125c-3.122498,1.304688 -7.080017,2.375 -8.8125,2.375c-3.076111,0 -3.132996,-1.229126 -2.0625,-51.5c0.932983,-43.817291 1.573486,-53.274475 4.3125,-63.625c4.933167,-18.642029 7.107666,-27.510376 9.343811,-38.125c1.127075,-5.3508 2.604797,-11.918335 3.3125,-14.59375c0.707581,-2.675415 2.495972,-11.777893 3.968689,-20.25c1.472717,-8.472137 3.38031,-18.479614 4.218811,-22.21875c0.838501,-3.739166 1.531189,-9.04184 1.531189,-11.8125c0,-4.539185 3.834473,-14.325165 5.468811,-14.375zm-13.218811,5.4375l-0.906189,4.875c-0.502197,2.675385 -1.374329,8.143127 -1.9375,12.15625c-1.845642,13.148895 -13.213196,68.088074 -14.3125,69.1875c-0.347839,0.347809 -1.071899,-1.609528 -1.625,-4.375c-0.553223,-2.765472 -1.736816,-4.58017 -2.625,-4.03125c-0.888245,0.548889 -2.2995,3.333038 -3.125,6.1875c-1.985535,6.865723 -2.201233,-27.222473 -0.281311,-43.78125c1.181213,-10.187561 2.274414,-13.001678 8.656311,-21.90625c4.024292,-5.615143 9.319763,-12.020508 11.75,-14.25l4.406189,-4.0625zm94.531311,195.9375c1.434265,-0.110535 2.413452,0.97583 3,3.3125c0.545654,2.173889 1.415466,5.045959 1.9375,6.40625c0.627869,1.636169 -0.646606,3.301331 -3.75,4.90625c-7.766052,4.015869 -34.199341,12.363098 -52.3125,16.53125c-19.530518,4.494202 -25.937622,4.933411 -25.9375,1.75c0,-1.213196 0.452393,-5.474304 1,-9.46875c0.897156,-6.545654 1.351379,-7.186829 4.781189,-6.53125c3.545898,0.677856 22.84668,-2.861267 33.9375,-6.21875c2.675415,-0.809937 11.442566,-3.328125 19.468811,-5.625c8.026184,-2.296936 15.792786,-4.549438 17.25,-4.96875c0.223694,-0.064392 0.419983,-0.078003 0.625,-0.09375zm-579.125,1.28125c0.0336,-0.014954 0.054596,-0.004761 0.093689,0.03125c0.625702,0.576294 3.699402,10.045288 6.843811,21.0625c3.144394,11.017151 6.123093,21.314331 6.593689,22.875c0.6082,2.016296 -0.06279,2.84375 -2.281189,2.84375c-5.76561,0 -8.892502,-3.837708 -9.3125,-11.4375c-0.219101,-3.963257 -0.975601,-13.786316 -1.6875,-21.8125c-0.667511,-7.524597 -0.75531,-13.338318 -0.25,-13.5625zm491.593689,35.15625c0.483582,-0.069763 0.75,-0.014954 0.75,0.1875c0,2.598877 -8.354004,11.5177 -13.093689,13.96875c-5.486816,2.83728 -13.82782,3.104492 -15.4375,0.5c-1.27771,-2.067505 3.508606,-6.25 7.156189,-6.25c1.279907,0 6.605469,-2.181885 11.843811,-4.84375c3.928589,-1.996399 7.330261,-3.35321 8.781189,-3.5625zm-469.593689,38.53125c0.393097,0.033142 0.787399,0.892639 1.375,2.3125c2.608795,6.304565 8.138397,21.486572 9.281189,25.53125c0.56691,2.006531 0.783096,3.62915 0.5,3.59375c-0.28299,-0.0354 -4.033203,-3.31427 -8.343689,-7.28125l-7.843811,-7.21875l2.375,-9.34375c1.383102,-5.454285 2.001099,-7.648987 2.656311,-7.59375zm26.9375,40.6875c0.614594,0.20752 3.49469,4.541199 7.281189,11.0625c22.212402,38.255249 43.929001,63.810974 74.531281,87.6875c17.490112,13.646118 30.812408,26.659851 30.8125,30.125c0,6.300171 -14.675201,1.303223 -35.218781,-12c-16.351898,-10.588806 -24.281296,-19.516052 -38.781189,-43.5625c-7.199112,-11.938904 -16.167801,-26.675537 -19.906311,-32.75c-6.573502,-10.680664 -16.415802,-31.7146 -18.75,-40.03125c-0.117294,-0.41803 -0.110596,-0.579163 0.031311,-0.53125zm-41.5625,71.0625l3.0625,7.3125c17.967896,42.916443 40.35849,78.991577 57.531189,92.6875c7.065903,5.635315 52.044601,28.888306 55.906311,28.90625c1.612488,0.007446 22.995392,8.785034 29.031189,11.90625c2.650879,1.370789 5.778503,3.634705 6.9375,5.03125c3.043976,3.667725 0.69519,3.142944 -24.218719,-5.15625c-19.210083,-6.39917 -63.919983,-25.255859 -93.656281,-39.53125c-10.919693,-5.242188 -20.833496,-9.531311 -22.031189,-9.53125c-1.197708,0 -3.536911,-4.051758 -5.218811,-9c-3.052094,-8.97937 -3.06749,-9.026855 0.531311,-19.0625c5.000687,-13.945068 4.671799,-22.805664 -1.3125,-35.59375c-2.703201,-5.77655 -5.262909,-14.416504 -5.718811,-19.21875l-0.843689,-8.75zm10.4375,99.71875c0.396194,0 10.101593,4.588135 21.5625,10.1875c11.4608,5.599365 26.311493,12.859375 33,16.125c14.054886,6.862244 13.823196,6.950012 -5.6875,2.125c-21.969513,-5.433105 -35.419601,-7.698853 -42.375,-7.09375l-6.25,0.5625l-0.5,-10.96875c-0.263702,-6.019409 -0.146408,-10.937561 0.25,-10.9375z" id="path1951"/>
    <path fill="#000000" d="m277.265106,2.03508c-0.340179,-0.016022 -0.691681,0.007874 -1.0625,0.03125c-0.022064,-0.000458 -0.040131,0.000092 -0.0625,0c-0.285156,-0.001282 -0.619812,0.059708 -0.96875,0.125c-0.039001,0.007294 -0.084991,-0.008224 -0.125,0c-4.45575,0.705261 -11.090912,3.904251 -22.312485,10.5c-21.093201,12.39798 -87.246201,35.796631 -119.4375,42.25c-18.602203,3.729172 -30.519722,8.605225 -40.343758,16.5c-7.494797,6.022995 -18.814796,22.480286 -23.8125,34.625c-5.127899,12.461151 -11.781261,35.586685 -11.781242,40.906265c0,2.943542 -2.12254,7.488739 -5.53125,11.90625c-5.768101,7.47525 -9.047112,16.609802 -9.0625,25.21875c-0.005001,2.789124 -1.025631,5.926727 -2.28125,6.96875c-4.951801,4.10968 -7.63987,13.315582 -8.3125,28.46875c-0.540699,12.179749 -2.01915,19.357544 -7.15625,35.21875c-14.437101,44.575653 -24.446251,83.180176 -26.843751,103.4375c-0.34124,2.883026 -0.87772,10.434021 -1.34375,18.8125c-0.0205,0.3685 -0.04224,0.690887 -0.0625,1.0625c-0.24278,3.668701 -0.47317,7.313416 -0.59375,10.65625c-0.13923,3.859924 -0.20692,6.875061 -0.25,9.4375c-0.09806,5.831848 0.08604,8.812134 0.75,10.53125c0.01088,0.038391 0.0201,0.087219 0.03125,0.125c1.06539,3.610352 3.3532,4.479248 7.65625,5.375c2.836699,0.590515 9.157589,2.761475 14.0625,4.8125c9.109301,3.809021 25.875179,9.026245 38.9375,12.15625c4.0131,0.961609 18.583229,2.174561 32.406242,2.6875c23.498306,0.872009 25.416916,1.176819 29.25,4.75c2.254807,2.101868 6.532204,4.684143 9.500008,5.71875c1.59407,0.555664 2.7108,0.946777 3.46875,1.4375c0.011429,0.007385 0.020004,0.023804 0.03125,0.03125c0.458847,0.354614 0.807007,0.789978 1.09375,1.28125c0.426559,1.08197 0.208694,2.69397 -0.25,5.5625c-0.566498,3.542786 -2.549927,10.561768 -4.40625,15.59375c-1.856293,5.031982 -4.048935,13.52417 -4.906258,18.875c-1.710197,10.673218 -0.59623,32.302185 2.15625,41.53125c1.445518,4.846497 1.186974,7.396545 -1.46875,14.59375c-8.501396,23.03894 -8.122589,38.7052 1.375,58.78125c5.57061,11.775085 5.808098,16.03302 1.468758,26.15625c-3.657303,8.532104 -4.251221,21.949158 -1.218758,27.28125c1.374016,2.415833 2.325737,16.411682 3.000008,44.0625c0.834305,34.214355 1.536087,42.910461 4.625,55.71875c2.924606,12.127197 4.011597,17.328125 9.46875,19.375c0.032013,0.012024 0.061432,0.01947 0.09375,0.03125c1.543533,0.766541 3.398819,1.072693 5.6875,1.03125c4.27298,0.290833 10.068604,0.032593 18.34375,-0.28125c29.399811,-1.115112 44.981674,0.809509 74.6875,9.1875c22.450394,6.331726 32.888474,8.540344 52.312485,11.15625c1.834351,0.247009 5.20874,0.497192 9.40625,0.71875c1.023132,0.222046 1.746979,0.434448 1.875061,0.5625c0.525604,0.525574 11.397583,0.549377 25.4375,0.3125c0.125793,0.001953 0.248993,-0.001892 0.375,0c2.497803,0.037598 5.012695,0.045227 7.5,0.0625c57.923187,0.402222 82.907684,-4.463806 137.8125,-26.875c42.739105,-17.445496 57.490509,-21.865417 82.156281,-24.625c7.161621,-0.80127 13.753235,-2.159546 14.625,-3.03125c7.160522,-7.160645 5.313416,-71.356628 -2.593811,-90.28125c-2.26178,-5.413208 -2.132751,-6.353882 2.218811,-16.90625c8.134216,-19.725769 10.420227,-29.387512 10.406189,-43.96875c-0.010681,-11.178162 -0.706604,-15.14801 -3.718689,-20.96875c-4.095276,-7.91333 -4.055359,-9.757019 0.875,-34.96875c2.160339,-11.046692 2.891541,-23.161804 2.968689,-49.78125l0.093811,-35.0625l1.5625,-0.09375l8.375,0c11.833496,0 20.430603,-3.246155 28.156189,-10.65625c5.037354,-4.831604 7.704712,-5.8396 23.781311,-8.875c32.034424,-6.04834 70.670715,-19.156738 77.25,-26.21875c0.801819,-0.860657 1.385742,-1.569885 1.781189,-2.40625c0.009705,-0.020447 0.021851,-0.041931 0.031311,-0.0625c0.635437,-0.959045 0.9375,-1.914612 0.9375,-2.875c0,-0.7724 -0.348572,-2.650269 -0.906311,-5.15625c-0.434204,-2.72345 -1.128906,-6.260986 -2.125,-11.25c-2.962646,-14.840118 -25.206177,-88.228851 -36.843689,-121.59375c-4.94281,-14.170441 -5.523987,-17.468231 -4.625,-26.03125c1.243286,-11.842773 -0.931091,-20.730682 -7.125,-29.28125c-3.574097,-4.933838 -4.828308,-8.885773 -5.656311,-17.6875c-1.968262,-20.922119 -14.430054,-69.821518 -21.1875,-83.125015c-12.348083,-24.309982 -30.801086,-35.503815 -94.718689,-57.40625c-45.816376,-15.699707 -64.265686,-23.303925 -76.875092,-31.75c-6.48941,-4.346725 -13.109192,-8.407822 -14.718689,-9c-1.674316,-0.616028 -6.872894,0.579071 -12.156311,2.78125c-18.213409,7.591476 -48.835999,12.210403 -81.406189,12.28125c-34.806122,0.075714 -53.819214,-4.254608 -87.062561,-19.8125c-0.809662,-0.378937 -1.698242,-0.60817 -2.71875,-0.65625zm-3.125,14.0625c0.011749,0.004562 0.018951,-0.005615 0.03125,0c0.010376,0.004745 0.020508,0.025772 0.03125,0.03125l7.75,13.3125c9.792206,16.852905 32.951202,40.348129 47.031311,47.75c5.367706,2.821793 15.209991,6.390381 21.875,7.90625c10.48819,2.385483 13.523407,2.467194 22.656189,0.6875c12.85791,-2.505585 27.287506,-8.801117 39.968811,-17.46875c9.391602,-6.419098 33.211182,-29.977524 41.281189,-40.8125l4.1875,-5.59375l7.531311,4.78125c4.674591,2.95343 7.560699,5.965973 7.5625,7.875c0.004181,4.411728 -9.780518,21.192734 -18.968811,32.53125c-17.248108,21.284485 -39.657501,34.779953 -67.375,40.5625c-49.621582,10.352249 -102.299713,-16.559326 -127.1875,-64.96875c-7.145477,-13.898651 -6.928085,-14.78894 5.375,-21.875l8.25,-4.71875zm12.875,6.8125c1.395874,0.083588 6.319275,1.547165 11.90625,3.5625c20.163361,7.273315 29.338959,9.264633 53.34375,9.6875c9.319611,0.971558 15.285217,0.971588 26.718811,0c26.338593,-0.470718 43.492004,-2.569855 59.375,-7.125c3.018402,-0.865677 5.774506,-1.287857 6.125,-0.9375c0.350403,0.350372 -3.98291,5.505341 -9.625,11.4375c-10.396393,10.930923 -11.051208,11.251541 -29.718811,15.5c-9.864594,2.244995 -50.352692,3.204041 -63.906189,1.5c-6.610596,-0.831146 -17.948303,-3.344849 -25.218811,-5.5625c-13.183289,-4.021149 -13.261139,-4.03952 -21.65625,-15.65625c-4.629883,-6.406586 -8.092163,-11.970367 -7.71875,-12.34375c0.046692,-0.046677 0.175598,-0.074448 0.375,-0.0625zm-40.093735,9.46875c0.012161,0.001251 0.018921,0.02951 0.03125,0.03125l6.90625,13.25c5.520401,10.610855 10.51915,16.933563 24.781235,31.28125c14.55899,14.646378 20.274872,19.196182 30.843811,24.5625c32.116608,16.307083 62.1474,18.753204 95.156189,7.75c29.989899,-9.996887 55.989502,-33.027664 71.906311,-63.71875c3.211884,-6.1931 5.197998,-8.429245 7.0625,-7.84375c1.430603,0.449249 9.559082,3.530991 18.031189,6.8125c8.472137,3.281509 30.993317,11.330276 50.062592,17.90625c63.464539,21.885361 78.451111,32.339005 87.781189,61.218765l3.156311,9.71875c0.02063,0.339722 0.033203,0.690125 0.031189,1c-0.001465,0.233124 -0.056152,0.510864 -0.125,0.84375l-7.156189,12.8125c-4.180664,7.448181 -9.328613,15.639679 -11.4375,18.21875c-3.732117,4.563965 -3.849609,4.597992 -3.906311,0.96875c-0.065369,-4.185242 -4.404663,-13.492126 -7.156189,-15.3125c-2.844788,-1.882141 -11.516602,-1.421021 -13.656311,0.71875c-4.075562,4.0755 -2.218994,6.246887 4.406311,5.1875c5.317139,-0.85025 6.60199,-0.474731 8.093689,2.3125c2.665894,4.981171 2.29364,16.5 -0.531189,16.5c-1.266663,0 -6.655518,4.800415 -11.968811,10.6875c-5.313293,5.887085 -10.052795,10.086426 -10.531189,9.3125c-0.85321,-1.380615 0.399536,-8.744049 4.5,-26.5c1.13269,-4.904938 1.703735,-9.491821 1.281189,-10.21875c-1.831848,-3.152435 -6.394104,4.428497 -8.3125,13.8125c-4.897156,23.956146 -5.640991,28.636169 -7.6875,48.0625c-0.904968,8.591492 -3.616882,74.198059 -5.5,133.1875c-0.896667,28.091736 -2.182007,55.828308 -2.875,61.625c-0.720947,6.03125 -7.243896,28.213867 -15.25,51.875c-7.694763,22.740967 -16.346985,48.64447 -19.218689,57.5625c-12.608093,39.151794 -34.630981,93.138184 -45.437592,111.375c-3.527405,5.952637 -6.406189,11.268799 -6.406189,11.84375c0,0.574951 1.552795,0.816223 3.468689,0.53125c7.701904,-1.14563 30.015106,-51.144775 54.843781,-122.9375c2.0047,-5.796692 6.084229,-16.732178 9.0625,-24.3125c2.978333,-7.580322 7.731506,-20.514404 10.5625,-28.75c2.831116,-8.235657 5.77771,-14.578735 6.5625,-14.09375c2.000732,1.236572 1.776917,45.508667 -0.3125,62.21875c-4.655701,37.235413 -7.727356,48.010559 -21.1875,74.3125c-13.078003,25.555237 -28.201172,52.012024 -46.406281,81.15625c-7.151611,11.448914 -9.947784,17.302124 -8.8125,18.4375c0.914307,0.914246 2.419312,1.196411 3.343811,0.625c4.233185,-2.616211 43.106903,-68.989014 59.843781,-102.15625c9.570618,-18.966248 10.792786,-20.656799 12.781189,-17.9375c3.656494,5.000549 3.434814,20.674744 -0.468689,34.8125c-4.111511,14.890625 -13.662598,35.977356 -20.5625,45.40625c-3.589417,4.904907 -14.470215,16.762634 -24.1875,26.34375c-16.919495,16.682007 -21.409485,24.167847 -10.750061,17.875c5.219849,-3.081604 29.313171,-27.414795 38.96875,-39.34375l5.906311,-7.3125l1.8125,4.625c3.250427,8.39209 5.77179,30.694397 6.406189,48.34375c-0.001099,0.146362 0.001404,0.291138 0,0.4375c-0.012451,1.34845 -0.058289,2.687988 -0.093689,4.03125l-0.406311,15.53125l0,0.03125c-0.303772,1.886719 -0.717651,3.186462 -1.25,3.71875c-1.070068,1.07019 -4.39447,1.9375 -7.375,1.9375c-15.193848,0 -45.306396,9.093323 -84.718781,25.5625c-36.184601,15.120361 -64.906097,22.84137 -97.5625,26.28125c-14.144592,1.489868 -46.860199,1.815918 -59.718689,0.59375c-20.692047,-1.966797 -47.524933,-7.523193 -73.218796,-15.15625c-20.704803,-6.15094 -48.930588,-9.929871 -71.625,-9.59375c-9.656296,0.143005 -18.166443,-0.37854 -18.90625,-1.15625c-3.124893,-3.285278 -6.460052,-34.086731 -7.09375,-65.53125c-0.541595,-26.871338 -1.241211,-34.913208 -3.625,-41.625c-1.395752,-3.929932 -2.133911,-6.054199 -2.125,-8.28125c0.012222,-0.315002 0.039108,-0.648254 0.0625,-0.96875c0.00531,-0.072754 0.02536,-0.145752 0.03125,-0.21875c0.249481,-2.137024 1.130783,-4.692688 2.6875,-9.125c5.032303,-14.327698 4.646713,-22.836914 -1.625,-36.34375c-7.071091,-15.228271 -7.243881,-28.240967 -0.625,-48.03125l4.71875,-14.15625l-2.6875,-11.21875c-3.977493,-16.47937 -3.521118,-32.859131 1.34375,-48.1875c2.227997,-7.019958 4.484558,-15.148621 5.03125,-18.0625c1.15271,-6.144348 3.132797,-6.895081 4.375,-1.65625c2.410797,10.167664 21.09053,61.028137 28.1875,76.75c14.070602,31.170227 39.553619,75.102417 56.84375,97.96875c7.208908,9.533813 21.350174,24.3125 23.249985,24.3125c3.495605,0 0.95047,-5.300537 -6.781235,-14.09375c-4.554398,-5.179749 -11.398392,-13.774231 -15.1875,-19.125c-16.899902,-23.865906 -50.422119,-87.91925 -63.65625,-121.625c-5.429596,-13.82843 -15.837799,-45.609131 -25.5,-77.8125c-2.408203,-8.026245 -5.015411,-16.426758 -5.78125,-18.65625c-5.647797,-16.442505 -13.977448,-66.709961 -12.34375,-74.5c0.479706,-2.287689 -0.144073,-10.357208 -1.375,-17.9375c-5.931107,-36.526123 -7.020737,-75.945404 -3.093758,-110.25c4.354805,-38.040955 4.490944,-45.266144 1.125,-54.28125c-2.307693,-6.180695 -4.721375,-9.192932 -10.28125,-12.875c-3.992798,-2.644226 -7.818039,-5.771118 -8.53125,-6.9375c-1.906395,-3.117981 -8.896553,-2.561035 -10.71875,0.84375c-0.8666,1.619202 -1.821213,7.636841 -2.125,13.375c-0.303795,5.738129 -1.257515,10.379303 -2.125,10.34375c-2.448395,-0.100372 -14.15625,-20.382904 -14.15625,-24.53125c0,-5.67955 6.795334,-21.381348 13.6875,-31.656265c9.834206,-14.660675 18.908783,-20.36824 39.437508,-24.8125c29.537598,-6.394592 82.792038,-23.324463 106.53125,-33.875l9.25,-4.125zm72.562546,27.875c0.657501,-0.031326 1.93158,0.178467 3.9375,0.53125c3.04248,0.53511 8.066193,1.796097 11.1875,2.78125c8.268707,2.609772 59.242096,2.395416 67,-0.28125c3.403992,-1.174469 6.575104,-1.768646 7.031189,-1.3125c1.189117,1.189026 -12.565399,8.977463 -22.5625,12.78125c-9.821198,3.736816 -28.363708,5.138214 -37.5,2.84375c-7.827484,-1.965729 -24.180389,-10.57045 -27.906189,-14.6875c-1.683014,-1.859619 -2.283417,-2.604034 -1.1875,-2.65625zm-214.906303,74.531265c4.046532,0.153503 12.413963,9.589752 14.375,16.59375c1.884705,6.731476 1.221924,25.040283 -1.125,31.15625c-0.453697,1.182281 -1.30159,2.141937 -1.875,2.125c-2.963493,-0.087585 -16.610497,-10.192719 -21.0625,-15.59375c-6.283997,-7.623535 -6.639725,-10.774811 -1.0625,-9.375c4.844002,1.215759 5.403931,0.102478 6.96875,-13.90625c0.631302,-5.651794 2.000267,-10.564117 3.03125,-10.90625c0.228134,-0.075714 0.480232,-0.103973 0.75,-0.09375zm540.250084,12c0.583008,0.03421 0.957825,0.909973 1.5,2.34375c3.028809,8.009674 7.562805,31.898102 8.656189,45.625c1.017334,12.772736 1.545105,14.499908 5.718811,18.21875c5.740906,5.115112 6.983215,9.869843 5.843689,22.4375c-0.810181,8.935638 -0.044373,12.32373 7.968811,35.90625c7.681702,22.606873 31.018616,98.377014 31.375,101.8125c-0.012512,0.094452 -0.003967,0.187164 -0.031311,0.28125c-1.328064,1.461884 -22.764404,8.396606 -35.593689,11.46875c-5.796814,1.388062 -13.097412,3.203674 -16.218811,4.03125c-3.121277,0.827515 -9.138855,2.373474 -13.375,3.4375c-7.913269,1.987671 -10.755493,6.375 -4.125,6.375c4.682007,0 33.515808,-7.105225 53.781311,-13.25c8.802124,-2.668945 16.524292,-4.240173 17.1875,-3.5c0.663025,0.740173 2.075928,3.909912 3.125,7.03125c1.703003,5.0672 1.536926,5.953979 -1.4375,8.375c-4.526978,3.684509 -34.201111,13.409668 -55.968811,18.34375c-9.809753,2.223572 -19.875854,4.054443 -22.375,4.0625l-4.5625,0.03125l0.875,-13.375c2.048706,-31.72644 3.070923,-70.73526 4,-153.65625l1,-87.9375c0.166016,-0.392273 0.354309,-0.799927 0.5625,-1.25l5.75,-8.8125c3.816711,-5.809845 5.372131,-8.057037 6.343811,-8zm-573.281334,2.25c0.670403,0 3.022026,3.45694 5.25,7.6875c4.050903,7.691925 21.473366,25.570007 33.53125,34.4375l6.375,4.71875l-1.40625,13.46875c-1.574593,14.869232 -0.255379,68.155731 2.15625,87.21875c0.846207,6.688507 2.181213,21.656555 3,33.25c0.818802,11.593414 2.252342,25.4617 3.15625,30.8125c1.922607,11.380615 10.179253,43.643555 14.968758,58.46875c1.8358,5.682251 2.879791,11.08197 2.3125,12c-2.178101,3.524109 -8.047623,1.444885 -13.96875,-4.96875c-6.576805,-7.123962 -7.439117,-7.335938 -23.375008,-5.46875c-0.838615,0.098267 -1.720764,0.180237 -2.59375,0.25l-7.21875,-0.0625c-3.693756,-0.041138 -6.802704,-0.100403 -9.65625,-0.15625c-19.177185,-1.669128 -42.688614,-7.805481 -66.468742,-17.625c-7.990301,-3.299438 -9.796651,-4.781494 -10.218751,-8.25c-0.3022,-2.483337 0.40796,-4.559509 1.71875,-5.0625c1.226001,-0.470459 9.756572,1.762207 18.968751,4.96875c11.930599,4.152771 17.260109,5.333557 18.5,4.09375c3.156799,-3.156799 -4.13385,-7.996643 -20.65625,-13.75c-8.14513,-2.836304 -15.03648,-5.363495 -16.1875,-5.9375c-0.120871,-0.190765 -0.22603,-0.391357 -0.312501,-0.59375c-0.04316,-4.101685 5.580531,-34.700562 9.156251,-49.46875c4.464701,-18.440247 17.325851,-62.255768 21.03125,-71.65625c3.580101,-9.082855 7.992668,-33.262695 8,-43.8125c0.003899,-5.689117 1.022041,-8.767548 4.03125,-12.34375c5.345501,-6.352753 7.343731,-12.032318 7.34375,-20.875c0,-6.043152 0.983021,-8.509064 5.656242,-13.96875c4.015007,-4.690552 5.6875,-8.191559 5.6875,-12c0,-2.960785 0.548347,-5.375 1.21875,-5.375zm553.750023,29.21875c0.112244,0.012817 0.202026,0.045776 0.281311,0.125c1.195313,1.195343 -1.967102,207.65802 -3.3125,216.28125c-1.495361,9.583557 -4.960999,14.392883 -14.625,20.25c-6.688904,4.053772 -11.156006,5.4552 -19.5,6.125l-10.8125,0.875l1.093689,-6.3125c2.226807,-12.805298 4.222351,-72.634521 4.125,-123.875c-0.095154,-50.152344 1.358215,-72.518341 5.1875,-79.75c2.956299,-5.583099 21.027649,-27.281281 22.718811,-27.28125c1.169189,0 1.391296,2.857147 0.6875,8.53125c-3.099304,24.98114 -15.067566,82.20462 -19.406311,92.8125c-1.094177,2.675415 -3.335388,10.154327 -5,16.625c-2.43457,9.463806 -2.645386,12.158325 -1,13.78125c1.633911,1.611481 2.46051,1.471436 4.125,-0.78125c1.713928,-2.319672 8.356934,-27.463623 17.218811,-65.28125c2.538696,-10.833893 5.991516,-30.044525 8.031189,-44.59375c1.062744,-7.580322 2.230713,-15.247681 2.593811,-17.03125c0.766541,-3.7659 5.911316,-10.692444 7.593689,-10.5zm-6.843689,238.3125c5.921631,0 -5.553101,15.267334 -14.1875,18.875c-5.115784,2.137512 -10.948792,2.541626 -17.5,1.15625c-1.783569,-0.377197 -4.899658,-1.040588 -6.906311,-1.46875c-6.300964,-1.344543 -4.423584,-5.59375 2.468811,-5.59375c6.763611,0 20.206299,-4.473511 28.9375,-9.625c3.122437,-1.842285 6.346619,-3.34375 7.1875,-3.34375zm-430.937576,39.125c-3.486984,-0.185852 -2.277832,4.315796 4.59375,18.0625c37.479309,74.976929 107.392776,156.079224 174.125046,201.96875c11.292206,7.765259 20.532501,9.313721 15.781189,2.65625c-0.655182,-0.91803 -8.686798,-6.977661 -17.843689,-13.46875c-21.960022,-15.566956 -33.241821,-25.010315 -54.468811,-45.59375c-41.049103,-39.80481 -82.442291,-94.642334 -108.312485,-143.53125c-6.279892,-11.867554 -11.361664,-19.666443 -13.09375,-20c-0.273911,-0.052734 -0.548782,-0.08136 -0.78125,-0.09375zm-40.96875,208.65625c-1.216354,0.098999 -1.624985,0.798706 -1.625,2c0,1.833984 25.544281,14.781921 52.40625,26.5625c10.852707,4.759583 24.851151,11.087158 31.09375,14.03125c6.242599,2.944153 19.011108,8.061462 28.374985,11.40625c17.312195,6.18396 26.749969,7.336609 26.75,3.25c0,-0.431274 -0.789032,-1.049866 -2.125,-1.8125c-0.021637,-0.018494 -0.040283,-0.04425 -0.0625,-0.0625c-0.584595,-0.481201 -1.374756,-0.892456 -2.1875,-1.125c-0.032257,-0.009216 -0.061371,-0.022583 -0.09375,-0.03125c-3.458801,-1.613953 -8.800934,-3.646729 -15.8125,-6c-23.111786,-7.756897 -61.204193,-23.647583 -93.437485,-39c-14.109772,-6.720398 -20.60524,-9.436523 -23.28125,-9.21875z" id="path1949"/>
   </g>
  </g>
 </g>
</svg>